<svg width="20" height="20" viewBox="0 0 20 20" fill="none" xmlns="http://www.w3.org/2000/svg">
<g clip-path="url(#clip0_9803_59625)">
<path d="M16.6667 7.5H9.16667C8.24619 7.5 7.5 8.24619 7.5 9.16667V16.6667C7.5 17.5871 8.24619 18.3333 9.16667 18.3333H16.6667C17.5871 18.3333 18.3333 17.5871 18.3333 16.6667V9.16667C18.3333 8.24619 17.5871 7.5 16.6667 7.5Z" stroke="#0033AD" stroke-width="1.5" stroke-linecap="round" stroke-linejoin="round"/>
<path d="M4.1665 12.4974H3.33317C2.89114 12.4974 2.46722 12.3218 2.15466 12.0092C1.8421 11.6967 1.6665 11.2728 1.6665 10.8307V3.33073C1.6665 2.8887 1.8421 2.46478 2.15466 2.15222C2.46722 1.83966 2.89114 1.66406 3.33317 1.66406H10.8332C11.2752 1.66406 11.6991 1.83966 12.0117 2.15222C12.3242 2.46478 12.4998 2.8887 12.4998 3.33073V4.16406" stroke="#0033AD" stroke-width="1.5" stroke-linecap="round" stroke-linejoin="round"/>
</g>
<defs>
<clipPath id="clip0_9803_59625">
<rect width="20" height="20" fill="white"/>
</clipPath>
</defs>
</svg>
