<svg width="48" height="48" viewBox="0 0 48 48" fill="none" xmlns="http://www.w3.org/2000/svg">
<path d="M0 24C0 10.7452 10.7452 0 24 0C37.2548 0 48 10.7452 48 24C48 37.2548 37.2548 48 24 48C10.7452 48 0 37.2548 0 24Z" fill="#F2F4F7"/>
<path d="M0.375 24C0.375 10.9523 10.9523 0.375 24 0.375C37.0477 0.375 47.625 10.9523 47.625 24C47.625 37.0477 37.0477 47.625 24 47.625C10.9523 47.625 0.375 37.0477 0.375 24Z" stroke="black" stroke-opacity="0.08" stroke-width="0.75"/>
<path d="M33.3327 34.5C33.3327 32.8718 33.3327 32.0578 33.1317 31.3953C32.6793 29.9039 31.5122 28.7367 30.0207 28.2843C29.3583 28.0833 28.5442 28.0833 26.916 28.0833H21.0827C19.4545 28.0833 18.6404 28.0833 17.978 28.2843C16.4865 28.7367 15.3194 29.9039 14.867 31.3953C14.666 32.0578 14.666 32.8718 14.666 34.5M29.2494 18.75C29.2494 21.6495 26.8988 24 23.9994 24C21.0999 24 18.7493 21.6495 18.7493 18.75C18.7493 15.8505 21.0999 13.5 23.9994 13.5C26.8988 13.5 29.2494 15.8505 29.2494 18.75Z" stroke="#667085" stroke-width="2.33333" stroke-linecap="round" stroke-linejoin="round"/>
</svg>
