<svg width="20" height="18" viewBox="0 0 20 18" fill="none" xmlns="http://www.w3.org/2000/svg">
<path fill-rule="evenodd" clip-rule="evenodd" d="M1.23591 7.23457C1.23591 4.01895 3.84255 1.4123 7.05818 1.4123C9.31822 1.4123 11.2787 2.69983 12.244 4.58463L12.2465 4.58965C12.6516 5.38267 12.8804 6.28118 12.8804 7.23458C12.8804 9.61987 11.446 11.6702 9.39264 12.5699C8.82114 12.8203 8.2017 12.9815 7.55189 13.0361C7.42344 13.0468 7.29381 13.0535 7.16312 13.0558L7.16309 13.0558L7.16146 13.0558C7.12718 13.0565 7.09289 13.0568 7.05818 13.0568C5.9837 13.0568 4.97968 12.7663 4.11687 12.2599C3.98554 12.1828 3.83133 12.1543 3.68112 12.1793L1.8003 12.4924L2.11342 10.6116C2.13842 10.4614 2.1099 10.3072 2.03283 10.1759C1.52646 9.31308 1.23591 8.30868 1.23591 7.23457ZM6.78735 14.3518C5.66177 14.3096 4.60229 14.0058 3.66838 13.4993L1.11648 13.9242C0.909457 13.9586 0.698527 13.891 0.550122 13.7426C0.401717 13.5942 0.3341 13.3833 0.368566 13.1763L0.793404 10.6244C0.246481 9.61583 -0.0640869 8.46061 -0.0640869 7.23457C-0.0640869 3.30098 3.12458 0.112305 7.05818 0.112305C9.68473 0.112305 11.9782 1.53416 13.2126 3.64784C17.0207 3.7902 20.064 6.92213 20.064 10.765C20.064 11.9911 19.7534 13.1463 19.2065 14.1548L19.6314 16.7067C19.6658 16.9138 19.5982 17.1247 19.4498 17.2731C19.3014 17.4215 19.0905 17.4891 18.8834 17.4547L16.3315 17.0298C15.3231 17.5767 14.1682 17.8873 12.9417 17.8873C10.3152 17.8873 8.0217 16.4655 6.78735 14.3518ZM8.34156 14.2413L8.27894 14.2525C9.34148 15.6709 11.035 16.5873 12.9417 16.5873C14.0162 16.5873 15.0202 16.2968 15.8831 15.7904C16.0144 15.7133 16.1686 15.6848 16.3188 15.7098L18.1996 16.0229L17.8865 14.1421C17.8615 13.9919 17.89 13.8377 17.9671 13.7064C18.4735 12.8436 18.764 11.8392 18.764 10.765C18.764 7.84994 16.6218 5.43532 13.8257 5.00945C14.056 5.71007 14.1804 6.45829 14.1804 7.23457C14.1804 7.33746 14.1783 7.43983 14.1739 7.54166H16.0017C16.3607 7.54166 16.6517 7.83267 16.6517 8.19166C16.6517 8.55064 16.3607 8.84166 16.0017 8.84166H13.9984C13.8966 9.28324 13.7537 9.70911 13.5739 10.1151H16.0017C16.3607 10.1151 16.6517 10.4061 16.6517 10.765C16.6517 11.124 16.3607 11.415 16.0017 11.415H12.8251C12.4828 11.8864 12.0842 12.3141 11.639 12.6884H16.0017C16.3607 12.6884 16.6517 12.9794 16.6517 13.3384C16.6517 13.6974 16.3607 13.9884 16.0017 13.9884H9.88503C9.76813 13.9884 9.65844 13.9575 9.56366 13.9035C9.17157 14.0509 8.76304 14.1647 8.34156 14.2413ZM7.05818 4.57057C6.60306 4.57057 6.23408 4.93953 6.23408 5.39467C6.23408 5.75366 5.94307 6.04467 5.58408 6.04467C5.2251 6.04467 4.93408 5.75366 4.93408 5.39467C4.93408 4.22153 5.88511 3.27057 7.05818 3.27057C8.23129 3.27057 9.18232 4.22152 9.18232 5.39467C9.18232 6.3411 8.56336 7.14291 7.70818 7.41748V8.59537C7.70818 8.95436 7.41717 9.24537 7.05818 9.24537C6.6992 9.24537 6.40818 8.95436 6.40818 8.59537V6.86877C6.40818 6.50979 6.6992 6.21877 7.05818 6.21877C7.51336 6.21877 7.88232 5.8498 7.88232 5.39467C7.88232 4.93954 7.51336 4.57057 7.05818 4.57057ZM7.64411 10.5486C7.65829 10.865 7.36465 11.1345 7.05817 11.1345C6.72969 11.1345 6.48645 10.866 6.47223 10.5486C6.45805 10.2321 6.75168 9.96264 7.05817 9.96264C7.38664 9.96264 7.62989 10.2311 7.64411 10.5486Z" fill="#FFCBAD"/>
</svg>
