<svg width="18" height="20" viewBox="0 0 18 20" fill="none" xmlns="http://www.w3.org/2000/svg">
<path fill-rule="evenodd" clip-rule="evenodd" d="M15.25 15.2311H14.55V13.8311H15.25H15.2503C15.7264 13.8311 16.1125 13.4449 16.1125 12.9686V2.34355C16.1125 1.86722 15.7264 1.48106 15.25 1.48106H7.43755C6.96094 1.48106 6.57505 1.86699 6.57505 2.34328V2.34355V3.04355H5.17505V2.34355V2.34328C5.17505 1.09348 6.18806 0.0810547 7.43755 0.0810547H15.25C16.4996 0.0810547 17.5125 1.09403 17.5125 2.34355V12.9686C17.5125 14.2179 16.4999 15.2311 15.2503 15.2311H15.25ZM2.75005 19.9186C1.50052 19.9186 0.487549 18.9056 0.487549 17.6561V6.71855C0.487549 5.46897 1.50053 4.45605 2.75005 4.45605H10.5625C11.8121 4.45605 12.825 5.46897 12.825 6.71855V17.6561C12.825 18.9056 11.8121 19.9186 10.5625 19.9186H2.75005ZM1.88755 17.6561C1.88755 18.1324 2.27372 18.5186 2.75005 18.5186H10.5625C11.0389 18.5186 11.425 18.1324 11.425 17.6561V6.71855C11.425 6.2422 11.0389 5.85605 10.5625 5.85605H2.75005C2.27371 5.85605 1.88755 6.2422 1.88755 6.71855V17.6561ZM3.61255 8.98105H4.31255H5.87505H6.57505V7.58105H5.87505H4.31255H3.61255V8.98105ZM4.31255 12.1061H3.61255V10.7061H4.31255H9.00005H9.70005V12.1061H9.00005H4.31255ZM3.61255 15.2311H4.31255H9.00005H9.70005V13.8311H9.00005H4.31255H3.61255V15.2311ZM8.2188 7.58105H9.7813V8.98105H8.2188V7.58105Z" fill="#FF640A"/>
</svg>
