<svg width="15" height="18" viewBox="0 0 15 18" fill="none" xmlns="http://www.w3.org/2000/svg">
<path d="M2.47216 14.729H12.6945C13.782 14.729 14.6667 13.8528 14.6667 12.7759V2.61963C14.6667 1.54268 13.782 0.666504 12.6945 0.666504H2.47216C1.38471 0.666504 0.5 1.54268 0.5 2.61963V15.38C0.5 16.457 1.38471 17.3332 2.47216 17.3332H12.0371H12.6945C13.782 17.3332 14.6667 16.457 14.6667 15.38V15.3784C14.1169 15.788 13.4339 16.0311 12.6945 16.0311H12.0371H2.47216C2.10968 16.0311 1.81477 15.739 1.81477 15.38C1.81477 15.0211 2.10968 14.729 2.47216 14.729ZM1.81477 2.61963C1.81477 2.26064 2.10968 1.96859 2.47216 1.96859H12.6945C13.057 1.96859 13.3519 2.26064 13.3519 2.61963V12.7759C13.3519 13.1349 13.057 13.4269 12.6945 13.4269H2.47216C2.24178 13.4269 2.02047 13.4662 1.81477 13.5385V2.61963ZM6.48221 6.15413H5.16744C5.16744 5.48623 5.45649 4.84694 5.96051 4.4001C6.47113 3.94736 7.15804 3.73096 7.84523 3.80654C8.94613 3.92754 9.83261 4.80319 9.95311 5.8887C10.063 6.87874 9.47674 7.58916 9.0262 8.0374C8.91023 8.15277 8.80321 8.25384 8.70878 8.34307C8.27921 8.7488 8.22448 8.81703 8.22448 9.09736V9.13005H6.90971V9.09733C6.90971 8.24294 7.32294 7.85267 7.80142 7.40075C7.89438 7.31296 7.99052 7.22217 8.09438 7.11882C8.51896 6.69639 8.68399 6.37106 8.64626 6.03096C8.59242 5.54626 8.1946 5.15501 7.70025 5.10068C7.37991 5.06559 7.0733 5.16117 6.83746 5.37028C6.60836 5.57334 6.48221 5.85173 6.48221 6.15413ZM6.90951 10.1066H8.22428V11.4087H6.90951V10.1066Z" fill="#FFCBAD"/>
</svg>
