<svg width="158" height="32" viewBox="0 0 158 32" fill="none" xmlns="http://www.w3.org/2000/svg">
	<g clip-path="url(#clip0_73_24958)">
		<path d="M9.04657 31.8336L2.47977 20.4584C2.35133 20.2359 2.51234 19.9591 2.76741 19.9591L3.67012 19.9591C3.78952 19.9591 3.89806 20.0224 3.95776 20.1255L9.88234 30.3863C9.94204 30.4895 10.0524 30.5528 10.17 30.5528L16.4745 30.5528C16.5939 30.5528 16.7024 30.6161 16.7621 30.7192L17.2144 31.5007C17.3428 31.7232 17.1818 32 16.9267 32L9.33421 32C9.21481 32 9.10627 31.9367 9.04657 31.8336Z" fill="#242232" />
		<path d="M18.6259 31.7324L14.8305 25.1565C14.7021 24.934 14.8631 24.6572 15.1182 24.6572L16.0209 24.6572C16.1403 24.6572 16.2488 24.7205 16.3085 24.8237L19.4616 30.2833C19.5213 30.3864 19.6317 30.4497 19.7493 30.4497L22.0088 30.4497C22.1282 30.4497 22.2367 30.5131 22.2964 30.6162L22.7487 31.3977C22.8771 31.6202 22.7161 31.897 22.461 31.897L18.9135 31.897C18.7941 31.897 18.6856 31.8337 18.6259 31.7305L18.6259 31.7324Z" fill="#242232" />
		<path d="M27.3511 31.8879L24.2685 31.8879C24.1491 31.8879 24.0406 31.8246 23.9809 31.7215L22.4396 29.0532C22.3799 28.9501 22.3799 28.8234 22.4396 28.7203L23.9809 26.052C24.0406 25.9489 24.1509 25.8856 24.2685 25.8856L27.3511 25.8856C27.4705 25.8856 27.5791 25.9489 27.6388 26.052L29.18 28.7203C29.2397 28.8234 29.2397 28.9501 29.18 29.0532L27.6388 31.7215C27.5791 31.8246 27.4687 31.8879 27.3511 31.8879Z" fill="#242232" />
		<path d="M36.7124 16.0858L30.1456 27.461C30.0172 27.6836 29.697 27.6836 29.5703 27.461L29.1181 26.6795C29.0584 26.5764 29.0584 26.4498 29.1181 26.3467L35.0427 16.0858C35.1024 15.9827 35.1024 15.8561 35.0427 15.753L31.8895 10.2933C31.8298 10.1902 31.8298 10.0636 31.8895 9.96046L32.3418 9.17895C32.4702 8.95644 32.7904 8.95644 32.917 9.17895L36.7124 15.753C36.7721 15.8561 36.7721 15.9827 36.7124 16.0858Z" fill="#242232" />
		<path d="M31.8354 7.84029L28.0401 14.4161C27.9116 14.6386 27.5914 14.6386 27.4648 14.4161L27.0126 13.6346C26.9529 13.5315 26.9529 13.4049 27.0126 13.3018L30.1657 7.8421C30.2254 7.73898 30.2254 7.61235 30.1657 7.50923L29.0351 5.55186C28.9754 5.44874 28.9754 5.32211 29.0351 5.219L29.4873 4.43749C29.6158 4.21498 29.936 4.21498 30.0626 4.43749L31.8372 7.50923C31.8969 7.61235 31.8969 7.73898 31.8372 7.8421L31.8354 7.84029Z" fill="#242232" />
		<path d="M27.6077 0.208001L29.149 2.87633C29.2087 2.97944 29.2087 3.10607 29.149 3.20919L27.6077 5.87751C27.548 5.98063 27.4376 6.04395 27.32 6.04395L24.2374 6.04395C24.118 6.04395 24.0095 5.98063 23.9498 5.87751L22.4085 3.20919C22.3488 3.10608 22.3488 2.97944 22.4085 2.87633L23.9498 0.208001C24.0095 0.104886 24.1199 0.0415703 24.2374 0.0415703L27.32 0.0415701C27.4394 0.04157 27.548 0.104886 27.6077 0.208001Z" fill="#242232" />
		<path d="M9.2427 -6.57516e-06L22.3781 -7.72349e-06C22.635 -7.74595e-06 22.7942 0.276773 22.6657 0.499285L22.2135 1.28079C22.1538 1.3839 22.0434 1.44722 21.9258 1.44722L10.0785 1.44722C9.95908 1.44722 9.85054 1.51054 9.79084 1.61365L6.63769 7.07332C6.578 7.17643 6.46764 7.23975 6.35006 7.23975L5.44735 7.23975C5.19047 7.23975 5.03127 6.96296 5.15971 6.74045L8.95506 0.164616C9.01476 0.0615013 9.12511 -0.0018146 9.2427 -0.00181462L9.2427 -6.57516e-06Z" fill="#242232" />
		<path d="M4.54084 8.34676L12.1334 8.34676C12.3902 8.34676 12.5494 8.62355 12.421 8.84606L11.9687 9.62756C11.909 9.73068 11.7987 9.79399 11.6811 9.79399L5.37662 9.79399C5.25722 9.79399 5.14868 9.85731 5.08898 9.96042L3.95834 11.9178C3.89864 12.0209 3.78829 12.0842 3.6707 12.0842L2.76799 12.0842C2.51111 12.0842 2.35191 11.8074 2.48036 11.5849L4.25321 8.5132C4.31291 8.41008 4.42326 8.34676 4.54084 8.34676Z" fill="#242232" />
		<path d="M5.24288 13.1553L6.78418 15.8236C6.84387 15.9267 6.84387 16.0533 6.78418 16.1565L5.24288 18.8248C5.18318 18.9279 5.07283 18.9912 4.95524 18.9912L1.87265 18.9912C1.75325 18.9912 1.64471 18.9279 1.58501 18.8248L0.0437156 16.1565C-0.0159826 16.0533 -0.0159826 15.9267 0.0437155 15.8236L1.58501 13.1553C1.64471 13.0522 1.75506 12.9888 1.87265 12.9888L4.95524 12.9888C5.07464 12.9888 5.18318 13.0522 5.24288 13.1553Z" fill="#242232" />
		<path d="M9.44699 16.1401L13.7091 23.5228C13.7688 23.6259 13.8791 23.6892 13.9967 23.6892L22.5209 23.6892C22.6403 23.6892 22.7488 23.6259 22.8085 23.5228L27.0706 16.1401C27.1303 16.037 27.1303 15.9104 27.0706 15.8072L22.8085 8.42458C22.7488 8.32146 22.6385 8.25815 22.5209 8.25815L13.9967 8.25815C13.8773 8.25815 13.7688 8.32147 13.7091 8.42458L9.44699 15.8072C9.38729 15.9104 9.38729 16.037 9.44699 16.1401ZM14.0311 15.7421L16.0626 12.2236C16.1223 12.1204 16.2327 12.0571 16.3503 12.0571L20.4115 12.0571C20.5309 12.0571 20.6395 12.1204 20.6992 12.2236L22.7307 15.7421C22.7904 15.8452 22.7904 15.9719 22.7307 16.075L20.6992 19.5936C20.6395 19.6967 20.5291 19.76 20.4115 19.76L16.3503 19.76C16.2309 19.76 16.1223 19.6967 16.0626 19.5936L14.0311 16.075C13.9714 15.9719 13.9714 15.8452 14.0311 15.7421Z" fill="#242232" />
	</g>
	<path d="M53.6749 16.5085C57.0227 16.5085 59.6838 18.2039 60.6495 21.2083H57.1944C56.5077 19.9422 55.263 19.2769 53.6749 19.2769C50.9924 19.2769 49.1254 21.1869 49.1254 24.1698C49.1254 27.2172 51.0139 29.1057 53.8037 29.1057C56.1214 29.1057 57.6022 27.7752 58.0528 25.6506H52.9024V23.3543H61.0144V25.9725C60.4135 29.0198 57.688 31.8097 53.6964 31.8097C49.34 31.8097 46.0351 28.655 46.0351 24.1698C46.0351 19.6846 49.34 16.5085 53.6749 16.5085Z" fill="#242232" />
	<path d="M78.2808 24.1484C78.2808 28.655 74.8686 31.8311 70.6195 31.8311C66.3918 31.8311 62.9367 28.655 62.9367 24.1484C62.9367 19.6632 66.3918 16.4871 70.6195 16.4871C74.8901 16.4871 78.2808 19.6632 78.2808 24.1484ZM66.027 24.1484C66.027 27.1957 67.894 29.1486 70.6195 29.1486C73.3235 29.1486 75.1905 27.1957 75.1905 24.1484C75.1905 21.101 73.3235 19.1911 70.6195 19.1911C67.894 19.1911 66.027 21.101 66.027 24.1484Z" fill="#242232" />
	<path d="M87.1043 28.6121L91.2032 16.7017H94.4008L88.907 31.6809H85.2587L79.7649 16.7017H82.9839L87.1043 28.6121Z" fill="#242232" />
	<path d="M101.841 19.1267V16.7017H112.829V19.1267H108.837V31.6809H105.833V19.1267H101.841Z" fill="#242232" />
	<path d="M130.065 24.1484C130.065 28.655 126.652 31.8311 122.403 31.8311C118.176 31.8311 114.72 28.655 114.72 24.1484C114.72 19.6632 118.176 16.4871 122.403 16.4871C126.674 16.4871 130.065 19.6632 130.065 24.1484ZM117.811 24.1484C117.811 27.1957 119.678 29.1486 122.403 29.1486C125.107 29.1486 126.974 27.1957 126.974 24.1484C126.974 21.101 125.107 19.1911 122.403 19.1911C119.678 19.1911 117.811 21.101 117.811 24.1484Z" fill="#242232" />
	<path d="M147.343 24.1484C147.343 28.655 143.931 31.8311 139.682 31.8311C135.454 31.8311 131.999 28.655 131.999 24.1484C131.999 19.6632 135.454 16.4871 139.682 16.4871C143.953 16.4871 147.343 19.6632 147.343 24.1484ZM135.09 24.1484C135.09 27.1957 136.957 29.1486 139.682 29.1486C142.386 29.1486 144.253 27.1957 144.253 24.1484C144.253 21.101 142.386 19.1911 139.682 19.1911C136.957 19.1911 135.09 21.101 135.09 24.1484Z" fill="#242232" />
	<path d="M150.008 16.7017H153.012V29.2988H157.948V31.6809H150.008V16.7017Z" fill="#242232" />
	<path d="M111.682 2.66675C112.362 2.66675 112.977 2.82649 113.526 3.14597C114.081 3.46544 114.515 3.91341 114.828 4.48986C115.147 5.05936 115.307 5.70526 115.307 6.42756C115.307 7.14986 115.147 7.79923 114.828 8.37568C114.515 8.94518 114.081 9.39315 113.526 9.71957C112.977 10.039 112.362 10.1988 111.682 10.1988C110.994 10.1988 110.373 10.039 109.817 9.71957C109.268 9.39315 108.834 8.94518 108.515 8.37568C108.195 7.79923 108.035 7.14986 108.035 6.42756C108.035 5.70526 108.195 5.05936 108.515 4.48986C108.834 3.91341 109.268 3.46544 109.817 3.14597C110.373 2.82649 110.994 2.66675 111.682 2.66675ZM111.682 3.77103C111.209 3.77103 110.789 3.87868 110.421 4.09398C110.053 4.30928 109.765 4.61834 109.556 5.02116C109.355 5.42398 109.254 5.89278 109.254 6.42756C109.254 6.96234 109.355 7.43114 109.556 7.83396C109.765 8.23678 110.053 8.54584 110.421 8.76114C110.789 8.97644 111.209 9.08409 111.682 9.08409C112.147 9.08409 112.56 8.97644 112.921 8.76114C113.29 8.54584 113.574 8.23678 113.776 7.83396C113.984 7.43114 114.088 6.96234 114.088 6.42756C114.088 5.89278 113.984 5.42398 113.776 5.02116C113.574 4.61834 113.29 4.30928 112.921 4.09398C112.56 3.87868 112.147 3.77103 111.682 3.77103Z" fill="#242232" />
	<path d="M103.712 10.1153H102.525L98.9513 4.68762V10.1153H97.7636V2.77075H98.9513L102.525 8.21924V2.77075H103.712V10.1153Z" fill="#242232" />
	<path d="M91.9229 8.52142H88.8185L88.2559 10.1153H86.9849L89.6935 2.875H91.0583L93.7565 10.1153H92.4855L91.9229 8.52142ZM91.5896 7.60466L90.3707 4.1668L89.1518 7.60466H91.5896Z" fill="#242232" />
	<path d="M83.2167 6.42755C83.2167 7.17068 83.0639 7.82005 82.7583 8.37567C82.4596 8.92434 82.0186 9.35146 81.4352 9.65705C80.8588 9.96264 80.1677 10.1154 79.3621 10.1154H76.9035V2.7605H79.3621C80.1677 2.7605 80.8588 2.91329 81.4352 3.21888C82.0186 3.51752 82.4596 3.94118 82.7583 4.48985C83.0639 5.03851 83.2167 5.68441 83.2167 6.42755ZM79.2683 9.04241C80.1504 9.04241 80.8275 8.81321 81.2998 8.35483C81.7721 7.89645 82.0082 7.25402 82.0082 6.42755C82.0082 5.60107 81.7721 4.95864 81.2998 4.50026C80.8275 4.04188 80.1504 3.81269 79.2683 3.81269H78.0911V9.04241H79.2683Z" fill="#242232" />
	<path d="M71.4169 10.1154L69.5833 7.17763H68.7395V10.1154H67.5519V2.7605H70.1459C70.9863 2.7605 71.6217 2.96538 72.0523 3.37515C72.4899 3.78491 72.7087 4.32663 72.7087 5.00032C72.7087 5.57676 72.5454 6.04904 72.219 6.41713C71.8995 6.78522 71.4342 7.02136 70.823 7.12554L72.7503 10.1154H71.4169ZM68.7395 6.33379H70.0521C71.0106 6.33379 71.4898 5.91013 71.4898 5.06282C71.4898 4.66 71.3717 4.34747 71.1356 4.12522C70.9064 3.89603 70.5452 3.78144 70.0521 3.78144H68.7395V6.33379Z" fill="#242232" />
	<path d="M61.7111 8.52142H58.6067L58.0441 10.1153H56.7731L59.4817 2.875H60.8465L63.5447 10.1153H62.2737L61.7111 8.52142ZM61.3778 7.60466L60.1589 4.1668L58.94 7.60466H61.3778Z" fill="#242232" />
	<path d="M49.5562 2.6875C50.4591 2.6875 51.2092 2.91669 51.8065 3.37507C52.4037 3.83345 52.8066 4.45505 53.0149 5.23985H51.7544C51.5807 4.79536 51.3029 4.44463 50.9209 4.18766C50.5459 3.92374 50.0841 3.79178 49.5354 3.79178C49.0978 3.79178 48.7054 3.89943 48.3582 4.11473C48.0179 4.33003 47.747 4.63909 47.5456 5.04191C47.3511 5.43779 47.2539 5.90311 47.2539 6.43789C47.2539 6.96573 47.3511 7.43105 47.5456 7.83387C47.747 8.22975 48.0179 8.53533 48.3582 8.75063C48.7054 8.96594 49.0978 9.07358 49.5354 9.07358C50.0841 9.07358 50.5459 8.9451 50.9209 8.68813C51.3029 8.42421 51.5807 8.07348 51.7544 7.63593H53.0149C52.8066 8.42074 52.4037 9.04233 51.8065 9.50071C51.2092 9.95215 50.4591 10.1779 49.5562 10.1779C48.8617 10.1779 48.2471 10.0216 47.7123 9.70907C47.1775 9.38959 46.7643 8.94857 46.4726 8.38601C46.1809 7.81651 46.035 7.16714 46.035 6.43789C46.035 5.70865 46.1809 5.06275 46.4726 4.50019C46.7643 3.93069 47.1775 3.48619 47.7123 3.16672C48.2471 2.84724 48.8617 2.6875 49.5562 2.6875Z" fill="#242232" />
	<defs>
		<clipPath id="clip0_73_24958">
			<rect width="36.7578" height="32" fill="white" transform="translate(36.7578 32) rotate(180)" />
		</clipPath>
	</defs>
</svg>
