<svg width="162" height="34" viewBox="0 0 162 34" fill="none" xmlns="http://www.w3.org/2000/svg">
<g clip-path="url(#clip0_136_9533)">
<path d="M9.2223 33.1404L2.52819 21.5447C2.39725 21.3178 2.56138 21.0357 2.8214 21.0357L3.74161 21.0357C3.86332 21.0357 3.97397 21.1002 4.03482 21.2053L10.0743 31.6651C10.1351 31.7702 10.2476 31.8348 10.3675 31.8348L16.7942 31.8348C16.9159 31.8348 17.0266 31.8993 17.0874 32.0044L17.5484 32.8011C17.6794 33.0279 17.5152 33.3101 17.2552 33.3101L9.51551 33.3101C9.3938 33.3101 9.28315 33.2455 9.2223 33.1404Z" fill="#242232"/>
<path d="M18.9868 33.0368L15.1179 26.3334C14.987 26.1066 15.1511 25.8245 15.4111 25.8245L16.3313 25.8245C16.453 25.8245 16.5637 25.889 16.6245 25.9941L19.8388 31.5596C19.8997 31.6648 20.0122 31.7293 20.132 31.7293L22.4353 31.7293C22.557 31.7293 22.6677 31.7938 22.7285 31.899L23.1896 32.6956C23.3205 32.9224 23.1564 33.2046 22.8963 33.2046L19.28 33.2046C19.1583 33.2046 19.0477 33.14 18.9868 33.0349L18.9868 33.0368Z" fill="#242232"/>
<path d="M27.8812 33.1958L24.7389 33.1958C24.6172 33.1958 24.5065 33.1313 24.4457 33.0261L22.8745 30.3061C22.8136 30.201 22.8136 30.0719 22.8745 29.9668L24.4457 27.2467C24.5065 27.1416 24.619 27.0771 24.7389 27.0771L27.8812 27.0771C28.0029 27.0771 28.1136 27.1416 28.1744 27.2467L29.7456 29.9668C29.8065 30.0719 29.8065 30.201 29.7456 30.3061L28.1744 33.0261C28.1136 33.1313 28.0011 33.1958 27.8812 33.1958Z" fill="#242232"/>
<path d="M37.4243 17.0872L30.7302 28.6829C30.5993 28.9097 30.2729 28.9097 30.1438 28.6829L29.6828 27.8863C29.6219 27.7811 29.6219 27.6521 29.6828 27.5469L35.7222 17.0872C35.7831 16.982 35.7831 16.853 35.7222 16.7478L32.5079 11.1823C32.4471 11.0772 32.4471 10.9481 32.5079 10.843L32.969 10.0464C33.0999 9.81953 33.4263 9.81953 33.5554 10.0464L37.4243 16.7478C37.4852 16.853 37.4852 16.982 37.4243 17.0872Z" fill="#242232"/>
<path d="M32.4528 8.68173L28.5838 15.3851C28.4529 15.6119 28.1265 15.6119 27.9974 15.3851L27.5364 14.5884C27.4755 14.4833 27.4755 14.3542 27.5364 14.2491L30.7506 8.68357C30.8115 8.57846 30.8115 8.44937 30.7506 8.34425L29.5981 6.34893C29.5372 6.24382 29.5372 6.11473 29.5981 6.00962L30.0591 5.21296C30.19 4.98613 30.5164 4.98613 30.6455 5.21296L32.4546 8.34425C32.5155 8.44937 32.5155 8.57846 32.4546 8.68357L32.4528 8.68173Z" fill="#242232"/>
<path d="M28.1432 0.901982L29.7144 3.62204C29.7752 3.72715 29.7752 3.85624 29.7144 3.96136L28.1432 6.68142C28.0823 6.78653 27.9698 6.85107 27.85 6.85107L24.7076 6.85107C24.5859 6.85107 24.4753 6.78653 24.4144 6.68142L22.8432 3.96136C22.7824 3.85624 22.7824 3.72715 22.8432 3.62204L24.4144 0.901982C24.4753 0.796868 24.5877 0.732325 24.7076 0.732325L27.85 0.732324C27.9717 0.732324 28.0823 0.796868 28.1432 0.901982Z" fill="#242232"/>
<path d="M9.42156 0.689707L22.8116 0.689706C23.0735 0.689706 23.2358 0.971853 23.1048 1.19868L22.6438 1.99533C22.583 2.10045 22.4705 2.16499 22.3506 2.16499L10.2735 2.16499C10.1518 2.16499 10.0412 2.22954 9.98032 2.33465L6.76605 7.90017C6.70519 8.00528 6.5927 8.06983 6.47283 8.06983L5.55262 8.06983C5.29076 8.06983 5.12848 7.78768 5.25941 7.56085L9.12835 0.857521C9.1892 0.752407 9.30169 0.687864 9.42156 0.687864L9.42156 0.689707Z" fill="#242232"/>
<path d="M4.62904 9.19837L12.3688 9.19837C12.6306 9.19837 12.7929 9.48052 12.662 9.70735L12.2009 10.504C12.1401 10.6091 12.0276 10.6737 11.9077 10.6737L5.48101 10.6737C5.3593 10.6737 5.24866 10.7382 5.1878 10.8433L4.03523 12.8386C3.97438 12.9438 3.86189 13.0083 3.74202 13.0083L2.82181 13.0083C2.55995 13.0083 2.39767 12.7262 2.5286 12.4993L4.33582 9.36803C4.39668 9.26292 4.50917 9.19837 4.62904 9.19837Z" fill="#242232"/>
<path d="M5.34436 14.1L6.91554 16.82C6.9764 16.9252 6.9764 17.0542 6.91554 17.1594L5.34436 19.8794C5.2835 19.9845 5.17101 20.0491 5.05115 20.0491L1.90879 20.0491C1.78708 20.0491 1.67643 19.9845 1.61558 19.8794L0.0443961 17.1594C-0.0164597 17.0542 -0.0164597 16.9252 0.0443961 16.82L1.61558 14.1C1.67643 13.9949 1.78892 13.9303 1.90879 13.9303L5.05115 13.9303C5.17286 13.9303 5.2835 13.9949 5.34436 14.1Z" fill="#242232"/>
<path d="M9.62993 17.1427L13.9746 24.6685C14.0355 24.7736 14.148 24.8381 14.2679 24.8381L22.9573 24.8381C23.079 24.8381 23.1897 24.7736 23.2505 24.6685L27.5952 17.1427C27.6561 17.0376 27.6561 16.9085 27.5952 16.8034L23.2505 9.27755C23.1897 9.17244 23.0772 9.1079 22.9573 9.1079L14.2679 9.1079C14.1462 9.1079 14.0355 9.17244 13.9746 9.27755L9.62993 16.8034C9.56908 16.9085 9.56908 17.0376 9.62993 17.1427ZM14.3029 16.737L16.3738 13.1502C16.4347 13.0451 16.5472 12.9805 16.667 12.9805L20.8071 12.9805C20.9288 12.9805 21.0394 13.0451 21.1003 13.1502L23.1712 16.737C23.2321 16.8421 23.2321 16.9712 23.1712 17.0763L21.1003 20.6631C21.0394 20.7682 20.9269 20.8327 20.8071 20.8327L16.667 20.8327C16.5453 20.8327 16.4347 20.7682 16.3738 20.6631L14.3029 17.0763C14.242 16.9712 14.242 16.8421 14.3029 16.737Z" fill="#242232"/>
</g>
<path d="M50.0582 8.55571L52.3224 2.23345H53.635L50.7801 9.83548H49.3363L46.4705 2.23345H47.8049L50.0582 8.55571Z" fill="#242232"/>
<path d="M65.3096 6.01806C65.3096 8.30413 63.5924 9.91204 61.4266 9.91204C59.2827 9.91204 57.5436 8.30413 57.5436 6.01806C57.5436 3.74292 59.2827 2.13501 61.4266 2.13501C63.5924 2.13501 65.3096 3.74292 65.3096 6.01806ZM58.8233 6.01806C58.8233 7.73535 59.9171 8.82917 61.4266 8.82917C62.9361 8.82917 64.0299 7.73535 64.0299 6.01806C64.0299 4.30077 62.9361 3.22883 61.4266 3.22883C59.9171 3.22883 58.8233 4.30077 58.8233 6.01806Z" fill="#242232"/>
<path d="M69.8181 2.23345H71.0651V8.82917H73.6356V9.83548H69.8181V2.23345Z" fill="#242232"/>
<path d="M77.566 3.2507V2.23345H82.871V3.2507H80.8475V9.83548H79.6005V3.2507H77.566Z" fill="#242232"/>
<path d="M92.5453 9.83548L91.9984 8.28226H88.8154L88.2685 9.83548H86.9669L89.6905 2.22252H91.1343L93.8579 9.83548H92.5453ZM91.6484 7.26501L90.4124 3.73198L89.1654 7.26501H91.6484Z" fill="#242232"/>
<path d="M98.3236 9.83548V2.23345H99.5705V9.83548H98.3236Z" fill="#242232"/>
<path d="M108.525 4.50859C108.525 3.74292 108.088 3.2507 107.114 3.2507H105.736V5.79929H107.114C108.088 5.79929 108.525 5.26332 108.525 4.50859ZM104.489 2.23345H107.114C108.919 2.23345 109.805 3.27258 109.805 4.50859C109.805 5.40552 109.324 6.36808 108.044 6.68529L109.925 9.83548H108.438L106.688 6.79467H105.736V9.83548H104.489V2.23345Z" fill="#242232"/>
<path d="M118.882 2.22252V3.23976H115.929V5.47115H118.554V6.4884H115.929V8.81823H118.882V9.83548H114.682V2.22252H118.882Z" fill="#242232"/>
<path d="M54.8163 16.2452C58.229 16.2452 60.9416 17.9735 61.9261 21.0362H58.404C57.7039 19.7455 56.4351 19.0673 54.8163 19.0673C52.0817 19.0673 50.1785 21.0143 50.1785 24.0551C50.1785 27.1615 52.1036 29.0866 54.9475 29.0866C57.3102 29.0866 58.8196 27.7303 59.279 25.5646H54.0287V23.2238H62.298V25.8927C61.6854 28.9991 58.9071 31.8431 54.8382 31.8431C50.3973 31.8431 47.0283 28.6272 47.0283 24.0551C47.0283 19.4829 50.3973 16.2452 54.8163 16.2452Z" fill="#242232"/>
<path d="M79.8992 24.0332C79.8992 28.6272 76.4209 31.8649 72.0893 31.8649C67.7797 31.8649 64.2576 28.6272 64.2576 24.0332C64.2576 19.4611 67.7797 16.2234 72.0893 16.2234C76.4427 16.2234 79.8992 19.4611 79.8992 24.0332ZM67.4078 24.0332C67.4078 27.1396 69.311 29.1304 72.0893 29.1304C74.8458 29.1304 76.749 27.1396 76.749 24.0332C76.749 20.9268 74.8458 18.9798 72.0893 18.9798C69.311 18.9798 67.4078 20.9268 67.4078 24.0332Z" fill="#242232"/>
<path d="M88.8938 28.5835L93.0722 16.4421H96.3317L90.7314 31.7118H87.0124L81.4121 16.4421H84.6935L88.8938 28.5835Z" fill="#242232"/>
<path d="M103.916 18.9142V16.4421H115.117V18.9142H111.048V31.7118H107.985V18.9142H103.916Z" fill="#242232"/>
<path d="M132.687 24.0332C132.687 28.6272 129.209 31.8649 124.877 31.8649C120.567 31.8649 117.045 28.6272 117.045 24.0332C117.045 19.4611 120.567 16.2234 124.877 16.2234C129.23 16.2234 132.687 19.4611 132.687 24.0332ZM120.196 24.0332C120.196 27.1396 122.099 29.1304 124.877 29.1304C127.633 29.1304 129.537 27.1396 129.537 24.0332C129.537 20.9268 127.633 18.9798 124.877 18.9798C122.099 18.9798 120.196 20.9268 120.196 24.0332Z" fill="#242232"/>
<path d="M150.301 24.0332C150.301 28.6272 146.822 31.8649 142.491 31.8649C138.181 31.8649 134.659 28.6272 134.659 24.0332C134.659 19.4611 138.181 16.2234 142.491 16.2234C146.844 16.2234 150.301 19.4611 150.301 24.0332ZM137.809 24.0332C137.809 27.1396 139.713 29.1304 142.491 29.1304C145.247 29.1304 147.151 27.1396 147.151 24.0332C147.151 20.9268 145.247 18.9798 142.491 18.9798C139.713 18.9798 137.809 20.9268 137.809 24.0332Z" fill="#242232"/>
<path d="M153.017 16.4421H156.08V29.2835H161.111V31.7118H153.017V16.4421Z" fill="#242232"/>
<defs>
<clipPath id="clip0_136_9533">
<rect width="37.4704" height="32.6204" fill="white" transform="translate(37.4705 33.3101) rotate(180)"/>
</clipPath>
</defs>
</svg>
