<svg width="28" height="24" viewBox="0 0 28 24" fill="none" xmlns="http://www.w3.org/2000/svg">
<g clip-path="url(#clip0_4139_564)">
<path d="M6.7856 23.8752L1.8605 15.3438C1.76417 15.1769 1.88492 14.9693 2.07623 14.9693L2.75326 14.9693C2.84281 14.9693 2.92421 15.0168 2.96899 15.0941L7.41243 22.7898C7.4572 22.8671 7.53996 22.9146 7.62815 22.9146L12.3565 22.9146C12.4461 22.9146 12.5275 22.9621 12.5722 23.0394L12.9114 23.6255C13.0078 23.7924 12.887 24 12.6957 24L7.00133 24C6.91178 24 6.83037 23.9525 6.7856 23.8752Z" fill="#242232"/>
<path d="M13.9697 23.7992L11.1232 18.8673C11.0269 18.7004 11.1476 18.4929 11.339 18.4929L12.016 18.4929C12.1055 18.4929 12.1869 18.5403 12.2317 18.6177L14.5966 22.7124C14.6413 22.7898 14.7241 22.8372 14.8123 22.8372L16.5069 22.8372C16.5965 22.8372 16.6779 22.8847 16.7226 22.9621L17.0618 23.5482C17.1582 23.7151 17.0374 23.9227 16.8461 23.9227L14.1855 23.9227C14.0959 23.9227 14.0145 23.8752 13.9697 23.7978L13.9697 23.7992Z" fill="#242232"/>
<path d="M20.5127 23.9159L18.2007 23.9159C18.1112 23.9159 18.0298 23.8684 17.985 23.7911L16.829 21.7898C16.7843 21.7125 16.7843 21.6175 16.829 21.5402L17.985 19.5389C18.0298 19.4616 18.1126 19.4141 18.2007 19.4141L20.5127 19.4141C20.6022 19.4141 20.6836 19.4616 20.7284 19.5389L21.8844 21.5402C21.9292 21.6175 21.9292 21.7125 21.8844 21.7898L20.7284 23.7911C20.6836 23.8684 20.6009 23.9159 20.5127 23.9159Z" fill="#242232"/>
<path d="M27.5348 12.0644L22.6097 20.5958C22.5134 20.7627 22.2732 20.7627 22.1782 20.5958L21.839 20.0097C21.7943 19.9324 21.7943 19.8374 21.839 19.7601L26.2825 12.0644C26.3272 11.9871 26.3272 11.8921 26.2825 11.8148L23.9176 7.72005C23.8728 7.64271 23.8728 7.54774 23.9176 7.4704L24.2568 6.88427C24.3531 6.71739 24.5933 6.71739 24.6883 6.88427L27.5348 11.8148C27.5796 11.8921 27.5796 11.9871 27.5348 12.0644Z" fill="#242232"/>
<path d="M23.8772 5.88028L21.0307 10.8122C20.9343 10.979 20.6942 10.979 20.5992 10.8122L20.26 10.226C20.2152 10.1487 20.2152 10.0537 20.26 9.97638L22.6249 5.88163C22.6696 5.8043 22.6696 5.70932 22.6249 5.63199L21.7769 4.16396C21.7321 4.08662 21.7321 3.99165 21.7769 3.91431L22.1161 3.32818C22.2124 3.1613 22.4526 3.1613 22.5475 3.32818L23.8785 5.63199C23.9233 5.70932 23.9233 5.8043 23.8785 5.88163L23.8772 5.88028Z" fill="#242232"/>
<path d="M20.706 0.156031L21.8619 2.15727C21.9067 2.23461 21.9067 2.32959 21.8619 2.40692L20.706 4.40817C20.6612 4.4855 20.5784 4.53299 20.4902 4.53299L18.1783 4.53299C18.0887 4.53299 18.0073 4.4855 17.9626 4.40817L16.8066 2.40692C16.7618 2.32959 16.7618 2.23461 16.8066 2.15727L17.9626 0.156031C18.0073 0.0786952 18.0901 0.0312084 18.1783 0.0312084L20.4902 0.0312082C20.5798 0.0312082 20.6612 0.0786949 20.706 0.156031Z" fill="#242232"/>
<path d="M6.93187 -4.36212e-06L16.7834 -5.22337e-06C16.9761 -5.24022e-06 17.0955 0.207581 16.9991 0.374464L16.66 0.960592C16.6152 1.03793 16.5324 1.08541 16.4442 1.08541L7.55871 1.08542C7.46916 1.08542 7.38775 1.1329 7.34298 1.21024L4.97812 5.30499C4.93334 5.38232 4.85058 5.42981 4.76239 5.42981L4.08536 5.42981C3.8927 5.42981 3.7733 5.22222 3.86963 5.05534L6.71615 0.123463C6.76092 0.0461263 6.84368 -0.00136048 6.93187 -0.00136049L6.93187 -4.36212e-06Z" fill="#242232"/>
<path d="M3.40569 6.26016L9.10007 6.26016C9.29273 6.26016 9.41213 6.46775 9.3158 6.63463L8.97661 7.22076C8.93183 7.2981 8.84907 7.34558 8.76088 7.34558L4.03252 7.34559C3.94297 7.34559 3.86156 7.39307 3.81679 7.47041L2.9688 8.93844C2.92403 9.01578 2.84127 9.06326 2.75308 9.06326L2.07605 9.06326C1.88338 9.06326 1.76399 8.85568 1.86032 8.68879L3.18996 6.38499C3.23473 6.30765 3.3175 6.26016 3.40569 6.26016Z" fill="#242232"/>
<path d="M3.93154 9.86645L5.08751 11.8677C5.13229 11.945 5.13229 12.04 5.08751 12.1173L3.93154 14.1186C3.88677 14.1959 3.804 14.2434 3.71581 14.2434L1.40387 14.2434C1.31432 14.2434 1.23292 14.1959 1.18814 14.1186L0.0321692 12.1173C-0.0126044 12.04 -0.0126044 11.945 0.0321691 11.8677L1.18814 9.86645C1.23292 9.78912 1.31568 9.74163 1.40387 9.74163L3.71581 9.74163C3.80536 9.74163 3.88677 9.78912 3.93154 9.86645Z" fill="#242232"/>
<path d="M7.08465 12.1051L10.2812 17.6421C10.326 17.7195 10.4088 17.767 10.4969 17.767L16.8901 17.767C16.9796 17.767 17.061 17.7195 17.1058 17.6421L20.3024 12.1051C20.3471 12.0278 20.3471 11.9328 20.3024 11.8555L17.1058 6.3185C17.061 6.24116 16.9783 6.19367 16.8901 6.19367L10.4969 6.19367C10.4074 6.19367 10.326 6.24116 10.2812 6.3185L7.08465 11.8555C7.03988 11.9328 7.03988 12.0278 7.08465 12.1051ZM10.5227 11.8067L12.0464 9.16773C12.0912 9.09039 12.1739 9.0429 12.2621 9.0429L15.3081 9.0429C15.3976 9.0429 15.479 9.09039 15.5238 9.16773L17.0475 11.8067C17.0922 11.884 17.0922 11.979 17.0475 12.0563L15.5238 14.6952C15.479 14.7726 15.3963 14.8201 15.3081 14.8201L12.2621 14.8201C12.1726 14.8201 12.0912 14.7726 12.0464 14.6952L10.5227 12.0563C10.4779 11.979 10.4779 11.884 10.5227 11.8067Z" fill="#242232"/>
</g>
<defs>
<clipPath id="clip0_4139_564">
<rect width="27.5683" height="24" fill="white" transform="translate(27.5684 24) rotate(180)"/>
</clipPath>
</defs>
</svg>
