<svg width="162" height="34" viewBox="0 0 162 34" fill="none" xmlns="http://www.w3.org/2000/svg">
<g clip-path="url(#clip0_13080_85227)">
<path d="M9.22254 33.1428L2.52843 21.5471C2.3975 21.3203 2.56162 21.0381 2.82164 21.0381L3.74185 21.0381C3.86356 21.0381 3.97421 21.1027 4.03507 21.2078L10.0745 31.6676C10.1354 31.7727 10.2479 31.8372 10.3677 31.8372L16.7944 31.8372C16.9162 31.8372 17.0268 31.9018 17.0877 32.0069L17.5487 32.8035C17.6796 33.0304 17.5155 33.3125 17.2555 33.3125L9.51575 33.3125C9.39404 33.3125 9.2834 33.248 9.22254 33.1428Z" fill="#242232"/>
<path d="M18.9866 33.0392L15.1177 26.3359C14.9867 26.1091 15.1508 25.8269 15.4109 25.8269L16.3311 25.8269C16.4528 25.8269 16.5634 25.8915 16.6243 25.9966L19.8386 31.5621C19.8994 31.6672 20.0119 31.7317 20.1318 31.7317L22.4351 31.7317C22.5568 31.7317 22.6674 31.7963 22.7283 31.9014L23.1893 32.6981C23.3202 32.9249 23.1561 33.207 22.8961 33.207L19.2798 33.207C19.1581 33.207 19.0474 33.1425 18.9866 33.0374L18.9866 33.0392Z" fill="#242232"/>
<path d="M27.881 33.1992L24.7386 33.1992C24.6169 33.1992 24.5063 33.1347 24.4454 33.0296L22.8742 30.3095C22.8134 30.2044 22.8134 30.0753 22.8742 29.9702L24.4454 27.2501C24.5063 27.145 24.6188 27.0805 24.7386 27.0805L27.881 27.0805C28.0027 27.0805 28.1133 27.145 28.1742 27.2501L29.7454 29.9702C29.8062 30.0753 29.8062 30.2044 29.7454 30.3095L28.1742 33.0296C28.1133 33.1347 28.0008 33.1992 27.881 33.1992Z" fill="#242232"/>
<path d="M37.4241 17.0896L30.73 28.6854C30.599 28.9122 30.2726 28.9122 30.1435 28.6854L29.6825 27.8887C29.6217 27.7836 29.6217 27.6545 29.6825 27.5494L35.722 17.0896C35.7828 16.9845 35.7828 16.8554 35.722 16.7503L32.5077 11.1848C32.4468 11.0797 32.4468 10.9506 32.5077 10.8455L32.9687 10.0488C33.0997 9.82197 33.4261 9.82197 33.5551 10.0488L37.4241 16.7503C37.4849 16.8554 37.4849 16.9845 37.4241 17.0896Z" fill="#242232"/>
<path d="M32.4525 8.68514L28.5836 15.3885C28.4526 15.6153 28.1262 15.6153 27.9972 15.3885L27.5361 14.5918C27.4753 14.4867 27.4753 14.3576 27.5361 14.2525L30.7504 8.68699C30.8113 8.58187 30.8113 8.45279 30.7504 8.34767L29.5978 6.35235C29.537 6.24723 29.537 6.11815 29.5978 6.01303L30.0589 5.21638C30.1898 4.98955 30.5162 4.98955 30.6453 5.21638L32.4544 8.34767C32.5152 8.45279 32.5152 8.58187 32.4544 8.68699L32.4525 8.68514Z" fill="#242232"/>
<path d="M28.1439 0.906377L29.7151 3.62643C29.776 3.73155 29.776 3.86064 29.7151 3.96575L28.1439 6.68581C28.0831 6.79093 27.9706 6.85547 27.8507 6.85547L24.7083 6.85547C24.5866 6.85547 24.476 6.79093 24.4151 6.68581L22.844 3.96575C22.7831 3.86064 22.7831 3.73155 22.844 3.62644L24.4151 0.906377C24.476 0.801262 24.5885 0.736719 24.7083 0.736719L27.8507 0.736719C27.9724 0.736719 28.0831 0.801262 28.1439 0.906377Z" fill="#242232"/>
<path d="M9.4218 0.690195L22.8119 0.690194C23.0737 0.690194 23.236 0.972342 23.1051 1.19917L22.6441 1.99582C22.5832 2.10094 22.4707 2.16548 22.3508 2.16548L10.2738 2.16548C10.1521 2.16548 10.0414 2.23002 9.98057 2.33514L6.76629 7.90066C6.70543 8.00577 6.59295 8.07031 6.47308 8.07031L5.55287 8.07031C5.291 8.07031 5.12872 7.78816 5.25965 7.56134L9.12859 0.85801C9.18945 0.752896 9.30194 0.688352 9.4218 0.688352L9.4218 0.690195Z" fill="#242232"/>
<path d="M4.62879 9.20179L12.3685 9.20179C12.6304 9.20179 12.7927 9.48394 12.6617 9.71077L12.2007 10.5074C12.1398 10.6125 12.0273 10.6771 11.9075 10.6771L5.48077 10.6771C5.35906 10.6771 5.24841 10.7416 5.18756 10.8467L4.03499 12.8421C3.97413 12.9472 3.86164 13.0117 3.74178 13.0117L2.82157 13.0117C2.5597 13.0117 2.39742 12.7296 2.52835 12.5027L4.33558 9.37145C4.39643 9.26634 4.50892 9.20179 4.62879 9.20179Z" fill="#242232"/>
<path d="M5.34411 14.1017L6.9153 16.8217C6.97615 16.9269 6.97615 17.056 6.9153 17.1611L5.34412 19.8811C5.28326 19.9862 5.17077 20.0508 5.0509 20.0508L1.90855 20.0508C1.78683 20.0508 1.67619 19.9862 1.61533 19.8811L0.044152 17.1611C-0.0167039 17.056 -0.0167039 16.9269 0.044152 16.8218L1.61533 14.1017C1.67619 13.9966 1.78868 13.932 1.90854 13.932L5.0509 13.932C5.17261 13.932 5.28326 13.9966 5.34411 14.1017Z" fill="#242232"/>
<path d="M9.63066 17.1444L13.9754 24.6702C14.0362 24.7753 14.1487 24.8398 14.2686 24.8398L22.958 24.8398C23.0797 24.8398 23.1904 24.7753 23.2512 24.6702L27.596 17.1444C27.6568 17.0393 27.6568 16.9102 27.596 16.8051L23.2512 9.27926C23.1904 9.17415 23.0779 9.1096 22.958 9.1096L14.2686 9.10961C14.1469 9.10961 14.0362 9.17415 13.9754 9.27926L9.63066 16.8051C9.56981 16.9102 9.56981 17.0393 9.63066 17.1444ZM14.3036 16.7387L16.3746 13.1519C16.4354 13.0468 16.5479 12.9822 16.6678 12.9822L20.8078 12.9822C20.9295 12.9822 21.0402 13.0468 21.101 13.1519L23.1719 16.7387C23.2328 16.8438 23.2328 16.9729 23.1719 17.078L21.101 20.6648C21.0402 20.7699 20.9277 20.8344 20.8078 20.8344L16.6678 20.8344C16.5461 20.8344 16.4354 20.7699 16.3746 20.6648L14.3036 17.078C14.2428 16.9729 14.2428 16.8438 14.3036 16.7387Z" fill="#242232"/>
</g>
<path d="M50.0584 8.55742L52.3226 2.23516H53.6352L50.7803 9.83719H49.3365L46.4707 2.23516H47.8052L50.0584 8.55742Z" fill="#242232"/>
<path d="M65.3099 6.01977C65.3099 8.30584 63.5926 9.91375 61.4268 9.91375C59.283 9.91375 57.5438 8.30584 57.5438 6.01977C57.5438 3.74463 59.283 2.13672 61.4268 2.13672C63.5926 2.13672 65.3099 3.74463 65.3099 6.01977ZM58.8236 6.01977C58.8236 7.73706 59.9174 8.83087 61.4268 8.83087C62.9363 8.83087 64.0301 7.73706 64.0301 6.01977C64.0301 4.30248 62.9363 3.23054 61.4268 3.23054C59.9174 3.23054 58.8236 4.30248 58.8236 6.01977Z" fill="#242232"/>
<path d="M69.8184 2.23516H71.0653V8.83087H73.6358V9.83719H69.8184V2.23516Z" fill="#242232"/>
<path d="M77.5663 3.25241V2.23516H82.8713V3.25241H80.8477V9.83719H79.6008V3.25241H77.5663Z" fill="#242232"/>
<path d="M92.5456 9.83719L91.9987 8.28397H88.8157L88.2688 9.83719H86.9671L89.6907 2.22422H91.1345L93.8582 9.83719H92.5456ZM91.6486 7.26672L90.4126 3.73369L89.1657 7.26672H91.6486Z" fill="#242232"/>
<path d="M98.3238 9.83719V2.23516H99.5708V9.83719H98.3238Z" fill="#242232"/>
<path d="M108.526 4.5103C108.526 3.74463 108.088 3.25241 107.115 3.25241H105.736V5.801H107.115C108.088 5.801 108.526 5.26503 108.526 4.5103ZM104.489 2.23516H107.115C108.919 2.23516 109.805 3.27429 109.805 4.5103C109.805 5.40723 109.324 6.36979 108.044 6.68699L109.926 9.83719H108.438L106.688 6.79638H105.736V9.83719H104.489V2.23516Z" fill="#242232"/>
<path d="M118.882 2.22422V3.24147H115.929V5.47286H118.554V6.49011H115.929V8.81994H118.882V9.83719H114.682V2.22422H118.882Z" fill="#242232"/>
<path d="M54.8165 16.2469C58.2292 16.2469 60.9419 17.9752 61.9263 21.0379H58.4042C57.7042 19.7472 56.4354 19.069 54.8165 19.069C52.082 19.069 50.1787 21.016 50.1787 24.0568C50.1787 27.1632 52.1039 29.0884 54.9478 29.0884C57.3104 29.0884 58.8199 27.732 59.2793 25.5663H54.029V23.2255H62.2982V25.8944C61.6857 29.0008 58.9074 31.8448 54.8384 31.8448C50.3975 31.8448 47.0285 28.6289 47.0285 24.0568C47.0285 19.4846 50.3975 16.2469 54.8165 16.2469Z" fill="#242232"/>
<path d="M79.8994 24.0349C79.8994 28.6289 76.4211 31.8666 72.0896 31.8666C67.7799 31.8666 64.2579 28.6289 64.2579 24.0349C64.2579 19.4628 67.7799 16.2251 72.0896 16.2251C76.443 16.2251 79.8994 19.4628 79.8994 24.0349ZM67.4081 24.0349C67.4081 27.1414 69.3113 29.1321 72.0896 29.1321C74.846 29.1321 76.7492 27.1414 76.7492 24.0349C76.7492 20.9285 74.846 18.9815 72.0896 18.9815C69.3113 18.9815 67.4081 20.9285 67.4081 24.0349Z" fill="#242232"/>
<path d="M88.894 28.5852L93.0724 16.4438H96.332L90.7316 31.7135H87.0127L81.4123 16.4438H84.6938L88.894 28.5852Z" fill="#242232"/>
<path d="M103.917 18.9159V16.4438H115.117V18.9159H111.048V31.7135H107.986V18.9159H103.917Z" fill="#242232"/>
<path d="M132.687 24.0349C132.687 28.6289 129.209 31.8666 124.877 31.8666C120.568 31.8666 117.046 28.6289 117.046 24.0349C117.046 19.4628 120.568 16.2251 124.877 16.2251C129.231 16.2251 132.687 19.4628 132.687 24.0349ZM120.196 24.0349C120.196 27.1414 122.099 29.1321 124.877 29.1321C127.634 29.1321 129.537 27.1414 129.537 24.0349C129.537 20.9285 127.634 18.9815 124.877 18.9815C122.099 18.9815 120.196 20.9285 120.196 24.0349Z" fill="#242232"/>
<path d="M150.301 24.0349C150.301 28.6289 146.823 31.8666 142.491 31.8666C138.182 31.8666 134.659 28.6289 134.659 24.0349C134.659 19.4628 138.182 16.2251 142.491 16.2251C146.845 16.2251 150.301 19.4628 150.301 24.0349ZM137.81 24.0349C137.81 27.1414 139.713 29.1321 142.491 29.1321C145.248 29.1321 147.151 27.1414 147.151 24.0349C147.151 20.9285 145.248 18.9815 142.491 18.9815C139.713 18.9815 137.81 20.9285 137.81 24.0349Z" fill="#242232"/>
<path d="M153.017 16.4438H156.08V29.2852H161.111V31.7135H153.017V16.4438Z" fill="#242232"/>
<defs>
<clipPath id="clip0_13080_85227">
<rect width="37.4704" height="32.6204" fill="white" transform="translate(37.4707 33.3125) rotate(180)"/>
</clipPath>
</defs>
</svg>
