<svg width="20" height="20" viewBox="0 0 20 20" fill="none" xmlns="http://www.w3.org/2000/svg">
	<g id="Navigation Item/Icon/Property 24" clip-path="url(#clip0_8204_16887)">
		<path id="Vector" d="M10.9996 12.001C10.9996 12.8844 10.6163 13.6844 9.99959 14.2344C9.46626 14.7177 8.76626 15.001 7.99959 15.001C7.27266 15.0023 6.57003 14.7394 6.02245 14.2613C5.47486 13.7832 5.11962 13.1225 5.02281 12.402C4.926 11.6816 5.09423 10.9505 5.49618 10.3448C5.89814 9.73909 6.50645 9.30006 7.20792 9.10938C7.42972 9.66905 7.81433 10.1493 8.31202 10.488C8.80971 10.8268 9.39757 11.0084 9.99959 11.0094C10.2746 11.0094 10.5413 10.976 10.7913 10.901C10.9246 11.2344 10.9996 11.6094 10.9996 12.001Z" stroke="#FFCBAD" stroke-width="1.5" stroke-linecap="round" stroke-linejoin="round" />
		<path id="Vector_2" d="M13 8C13 8.39167 12.925 8.76667 12.7917 9.10833C12.5699 9.66801 12.1853 10.1483 11.6876 10.487C11.1899 10.8257 10.6021 11.0073 10 11.0083C9.72504 11.0083 9.45837 10.975 9.20837 10.9C8.572 10.7278 8.01042 10.3501 7.61102 9.82556C7.21162 9.30106 6.99681 8.65925 7.00004 8C7.00004 6.34167 8.3417 5 10 5C11.6584 5 13 6.34167 13 8Z" stroke="#FFCBAD" stroke-width="1.5" stroke-linecap="round" stroke-linejoin="round" />
		<path id="Vector_3" d="M15 12.0016C15.0002 12.5808 14.8326 13.1476 14.5175 13.6336C14.2024 14.1196 13.7533 14.504 13.2245 14.7402C12.6956 14.9764 12.1097 15.0544 11.5375 14.9647C10.9652 14.8751 10.4312 14.6216 10 14.2349C10.3163 13.9555 10.5693 13.6117 10.7417 13.2265C10.9142 12.8413 11.0023 12.4236 11 12.0016C11 11.6099 10.925 11.2349 10.7917 10.8932C11.7083 10.6432 12.45 9.97656 12.7917 9.10156C13.4257 9.2779 13.9847 9.65673 14.3834 10.1803C14.7821 10.7039 14.9986 11.3435 15 12.0016Z" stroke="#FFCBAD" stroke-width="1.5" stroke-linecap="round" stroke-linejoin="round" />
		<path id="Vector_4" d="M7.50033 18.3346H12.5003C16.667 18.3346 18.3337 16.668 18.3337 12.5013V7.5013C18.3337 3.33464 16.667 1.66797 12.5003 1.66797H7.50033C3.33366 1.66797 1.66699 3.33464 1.66699 7.5013V12.5013C1.66699 16.668 3.33366 18.3346 7.50033 18.3346Z" stroke="#FFCBAD" stroke-width="1.5" stroke-linecap="round" stroke-linejoin="round" />
	</g>
	<defs>
		<clipPath id="clip0_8204_16887">
			<rect width="20" height="20" fill="white" />
		</clipPath>
	</defs>
</svg>
