<svg width="20" height="20" viewBox="0 0 20 20" fill="none" xmlns="http://www.w3.org/2000/svg">
<path d="M12.5 2.5H17.5V7.5" stroke="#0033AD" stroke-width="2" stroke-linecap="round" stroke-linejoin="round"/>
<path fill-rule="evenodd" clip-rule="evenodd" d="M18.2071 3.20711C18.5976 2.81658 18.5976 2.18342 18.2071 1.79289C17.8166 1.40237 17.1834 1.40237 16.7929 1.79289L7.62623 10.9596C7.2357 11.3501 7.2357 11.9832 7.62623 12.3738C8.01675 12.7643 8.64992 12.7643 9.04044 12.3738L18.2071 3.20711ZM3.69526 6.19526C3.82029 6.07024 3.98986 6 4.16667 6H9.16667C9.71895 6 10.1667 5.55228 10.1667 5C10.1667 4.44772 9.71895 4 9.16667 4H4.16667C3.45942 4 2.78115 4.28095 2.28105 4.78105C1.78095 5.28115 1.5 5.95942 1.5 6.66667V15.8333C1.5 16.5406 1.78095 17.2189 2.28105 17.719C2.78115 18.219 3.45942 18.5 4.16667 18.5H13.3333C14.0406 18.5 14.7189 18.219 15.219 17.719C15.719 17.2189 16 16.5406 16 15.8333V10.8333C16 10.281 15.5523 9.83333 15 9.83333C14.4477 9.83333 14 10.281 14 10.8333V15.8333C14 16.0101 13.9298 16.1797 13.8047 16.3047C13.6797 16.4298 13.5101 16.5 13.3333 16.5H4.16667C3.98986 16.5 3.82029 16.4298 3.69526 16.3047C3.57024 16.1797 3.5 16.0101 3.5 15.8333V6.66667C3.5 6.48986 3.57024 6.32029 3.69526 6.19526Z" fill="#0033AD"/>
</svg>
