<svg width="19" height="19" viewBox="0 0 19 19" fill="none" xmlns="http://www.w3.org/2000/svg">
<path fill-rule="evenodd" clip-rule="evenodd" d="M1.88841 2.38859C2.08376 2.19324 2.34871 2.0835 2.62498 2.0835H10.125C10.4012 2.0835 10.6662 2.19324 10.8615 2.38859C11.0569 2.58394 11.1666 2.8489 11.1666 3.12516V3.9585C11.1666 4.30367 11.4465 4.5835 11.7916 4.5835C12.1368 4.5835 12.4166 4.30367 12.4166 3.9585V3.12516C12.4166 2.51737 12.1752 1.93448 11.7454 1.50471C11.3157 1.07494 10.7328 0.833496 10.125 0.833496H2.62498C2.01719 0.833496 1.4343 1.07494 1.00453 1.50471C0.574756 1.93448 0.333313 2.51738 0.333313 3.12516V10.6252C0.333313 11.233 0.574756 11.8158 1.00453 12.2456C1.4343 12.6754 2.01719 12.9168 2.62498 12.9168H3.45831C3.80349 12.9168 4.08331 12.637 4.08331 12.2918C4.08331 11.9467 3.80349 11.6668 3.45831 11.6668H2.62498C2.34871 11.6668 2.08376 11.5571 1.88841 11.3617C1.69306 11.1664 1.58331 10.9014 1.58331 10.6252V3.12516C1.58331 2.8489 1.69306 2.58394 1.88841 2.38859ZM7.41665 8.9585C7.41665 8.3832 7.88302 7.91683 8.45831 7.91683H15.9583C16.5336 7.91683 17 8.3832 17 8.9585V16.4585C17 17.0338 16.5336 17.5002 15.9583 17.5002H8.45831C7.88302 17.5002 7.41665 17.0338 7.41665 16.4585V8.9585ZM8.45831 6.66683C7.19266 6.66683 6.16665 7.69284 6.16665 8.9585V16.4585C6.16665 17.7241 7.19266 18.7502 8.45831 18.7502H15.9583C17.224 18.7502 18.25 17.7241 18.25 16.4585V8.9585C18.25 7.69284 17.224 6.66683 15.9583 6.66683H8.45831Z" fill="#242232"/>
</svg>
