<svg width="19" height="19" viewBox="0 0 19 19" fill="none" xmlns="http://www.w3.org/2000/svg">
<path fill-rule="evenodd" clip-rule="evenodd" d="M1.93126 2.16887C2.12661 1.97352 2.39156 1.86377 2.66783 1.86377H10.1678C10.4441 1.86377 10.709 1.97352 10.9044 2.16887C11.0997 2.36422 11.2095 2.62917 11.2095 2.90544V3.73877C11.2095 4.08395 11.4893 4.36377 11.8345 4.36377C12.1797 4.36377 12.4595 4.08395 12.4595 3.73877V2.90544C12.4595 2.29765 12.2181 1.71475 11.7883 1.28498C11.3585 0.855212 10.7756 0.61377 10.1678 0.61377H2.66783C2.06004 0.61377 1.47714 0.855212 1.04737 1.28498C0.617602 1.71475 0.37616 2.29765 0.37616 2.90544V10.4054C0.37616 11.0132 0.617602 11.5961 1.04737 12.0259C1.47714 12.4557 2.06004 12.6971 2.66783 12.6971H3.50116C3.84634 12.6971 4.12616 12.4173 4.12616 12.0721C4.12616 11.7269 3.84634 11.4471 3.50116 11.4471H2.66783C2.39156 11.4471 2.12661 11.3374 1.93126 11.142C1.73591 10.9467 1.62616 10.6817 1.62616 10.4054V2.90544C1.62616 2.62917 1.73591 2.36422 1.93126 2.16887ZM7.45949 8.73877C7.45949 8.16347 7.92586 7.6971 8.50116 7.6971H16.0012C16.5765 7.6971 17.0428 8.16347 17.0428 8.73877V16.2388C17.0428 16.8141 16.5765 17.2804 16.0012 17.2804H8.50116C7.92586 17.2804 7.45949 16.8141 7.45949 16.2388V8.73877ZM8.50116 6.4471C7.23551 6.4471 6.20949 7.47312 6.20949 8.73877V16.2388C6.20949 17.5044 7.23551 18.5304 8.50116 18.5304H16.0012C17.2668 18.5304 18.2928 17.5044 18.2928 16.2388V8.73877C18.2928 7.47312 17.2668 6.4471 16.0012 6.4471H8.50116Z" fill="white"/>
</svg>
