<svg width="19" height="18" viewBox="0 0 19 18" fill="none" xmlns="http://www.w3.org/2000/svg">
<path fill-rule="evenodd" clip-rule="evenodd" d="M13.9584 0.0415039C13.0287 0.0415039 12.2166 0.274346 11.6414 0.849562C11.0662 1.42478 10.8334 2.23683 10.8334 3.1665V4.83317C10.8334 5.76284 11.0662 6.5749 11.6414 7.15011C12.2166 7.72533 13.0287 7.95817 13.9584 7.95817H15.625C16.5547 7.95817 17.3668 7.72533 17.942 7.15011C18.5172 6.5749 18.75 5.76284 18.75 4.83317V3.1665C18.75 2.23683 18.5172 1.42478 17.942 0.849562C17.3668 0.274346 16.5547 0.0415039 15.625 0.0415039H13.9584ZM12.0834 3.1665C12.0834 2.42951 12.2672 1.99156 12.5253 1.73345C12.7834 1.47533 13.2214 1.2915 13.9584 1.2915H15.625C16.362 1.2915 16.8 1.47533 17.0581 1.73345C17.3162 1.99156 17.5 2.42951 17.5 3.1665V4.83317C17.5 5.57016 17.3162 6.00811 17.0581 6.26623C16.8 6.52435 16.362 6.70817 15.625 6.70817H13.9584C13.2214 6.70817 12.7834 6.52435 12.5253 6.26623C12.2672 6.00811 12.0834 5.57016 12.0834 4.83317V3.1665ZM3.95837 10.0415C3.0287 10.0415 2.21665 10.2743 1.64143 10.8496C1.06622 11.4248 0.833374 12.2368 0.833374 13.1665V14.8332C0.833374 15.7628 1.06622 16.5749 1.64143 17.1501C2.21665 17.7253 3.0287 17.9582 3.95837 17.9582H5.62504C6.55471 17.9582 7.36677 17.7253 7.94198 17.1501C8.5172 16.5749 8.75004 15.7628 8.75004 14.8332V13.1665C8.75004 12.2368 8.5172 11.4248 7.94198 10.8496C7.36677 10.2743 6.55471 10.0415 5.62504 10.0415H3.95837ZM2.08337 13.1665C2.08337 12.4295 2.2672 11.9916 2.52532 11.7334C2.78343 11.4753 3.22138 11.2915 3.95837 11.2915H5.62504C6.36203 11.2915 6.79998 11.4753 7.0581 11.7334C7.31622 11.9916 7.50004 12.4295 7.50004 13.1665V14.8332C7.50004 15.5702 7.31622 16.0081 7.0581 16.2662C6.79998 16.5243 6.36203 16.7082 5.62504 16.7082H3.95837C3.22138 16.7082 2.78343 16.5243 2.52532 16.2662C2.2672 16.0081 2.08337 15.5702 2.08337 14.8332V13.1665ZM4.79171 1.2915C3.29594 1.2915 2.08337 2.50407 2.08337 3.99984C2.08337 5.49561 3.29594 6.70817 4.79171 6.70817C6.28748 6.70817 7.50004 5.49561 7.50004 3.99984C7.50004 2.50407 6.28748 1.2915 4.79171 1.2915ZM0.833374 3.99984C0.833374 1.81371 2.60558 0.0415039 4.79171 0.0415039C6.97783 0.0415039 8.75004 1.81371 8.75004 3.99984C8.75004 6.18596 6.97783 7.95817 4.79171 7.95817C2.60558 7.95817 0.833374 6.18596 0.833374 3.99984ZM12.0834 13.9998C12.0834 12.5041 13.2959 11.2915 14.7917 11.2915C16.2875 11.2915 17.5 12.5041 17.5 13.9998C17.5 15.4956 16.2875 16.7082 14.7917 16.7082C13.2959 16.7082 12.0834 15.4956 12.0834 13.9998ZM14.7917 10.0415C12.6056 10.0415 10.8334 11.8137 10.8334 13.9998C10.8334 16.186 12.6056 17.9582 14.7917 17.9582C16.9778 17.9582 18.75 16.186 18.75 13.9998C18.75 11.8137 16.9778 10.0415 14.7917 10.0415Z" fill="#FF640A"/>
</svg>
