<svg width="16" height="16" viewBox="0 0 16 16" fill="none" xmlns="http://www.w3.org/2000/svg">
<path d="M8 12.6094C8.43147 12.6094 8.78125 12.2596 8.78125 11.8281C8.78125 11.3967 8.43147 11.0469 8 11.0469C7.56853 11.0469 7.21875 11.3967 7.21875 11.8281C7.21875 12.2596 7.56853 12.6094 8 12.6094Z" fill="#FF640A"/>
<path d="M8 0C3.57863 0 0 3.57803 0 8C0 12.4214 3.57803 16 8 16C12.4214 16 16 12.422 16 8C16 3.57863 12.422 0 8 0ZM8 14.75C4.26947 14.75 1.25 11.731 1.25 8C1.25 4.26947 4.26897 1.25 8 1.25C11.7305 1.25 14.75 4.26897 14.75 8C14.75 11.7305 11.731 14.75 8 14.75Z" fill="#FF640A"/>
<path d="M8 4.01562C6.6215 4.01562 5.5 5.13713 5.5 6.51562C5.5 6.86081 5.77981 7.14062 6.125 7.14062C6.47019 7.14062 6.75 6.86081 6.75 6.51562C6.75 5.82638 7.31075 5.26562 8 5.26562C8.68925 5.26562 9.25 5.82638 9.25 6.51562C9.25 7.20487 8.68925 7.76562 8 7.76562C7.65481 7.76562 7.375 8.04544 7.375 8.39062V9.95312C7.375 10.2983 7.65481 10.5781 8 10.5781C8.34519 10.5781 8.625 10.2983 8.625 9.95312V8.93653C9.70206 8.65831 10.5 7.67841 10.5 6.51562C10.5 5.13713 9.3785 4.01562 8 4.01562Z" fill="#FF640A"/>
</svg>
